<?xml version="1.0"?>
<svg xmlns="http://www.w3.org/2000/svg" xmlns:xlink="http://www.w3.org/1999/xlink" version="1.1" viewBox="0 0 512 512" enable-background="new 0 0 512 512" width="512px" height="512px" class=""><g><g>
    <g>
      <g>
        <path d="M480.7,11h-73.8c-8.5,0-16.1,5.3-19.1,13.2L287.1,291H91.9L56.7,128.8h196c11.3,0,20.4-9.1,20.4-20.4     s-9.1-20.4-20.4-20.4H31.4c-20,0-21.3,18.7-20,24.7l44,203.1c2,9.4,10.3,16.1,20,16.1h225.7c8.5,0,16.1-5.3,19.1-13.2L421,51.8     h59.7c11.3,0,20.4-9.1,20.4-20.4C501.1,20.1,491.9,11,480.7,11z" data-original="#000000" class="active-path" data-old_color="#000000" fill="#FFFFFF"/>
        <path d="m106.4,364.6c-37.7,0-68.4,30.6-68.4,68.2 0,37.6 30.7,68.2 68.4,68.2 37.7,0 68.4-30.6 68.4-68.2 0-37.6-30.7-68.2-68.4-68.2zm0,95.6c-15.2,0-27.6-12.3-27.6-27.3 0-15.1 12.4-27.3 27.6-27.3 15.2,0 27.5,12.3 27.5,27.3 0,15-12.3,27.3-27.5,27.3z" data-original="#000000" class="active-path" data-old_color="#000000" fill="#FFFFFF"/>
        <path d="m268.5,364.6c-37.7,0-68.4,30.6-68.4,68.2 0,37.6 30.7,68.2 68.4,68.2 37.7,0 68.4-30.6 68.4-68.2 0-37.6-30.7-68.2-68.4-68.2zm0,95.6c-15.2,0-27.6-12.3-27.6-27.3 0-15.1 12.4-27.3 27.6-27.3 15.2,0 27.5,12.3 27.5,27.3 0,15-12.3,27.3-27.5,27.3z" data-original="#000000" class="active-path" data-old_color="#000000" fill="#FFFFFF"/>
      </g>
    </g>
  </g></g> </svg>
